<?xml version="1.0" encoding="UTF-8" standalone="no"?>
<!DOCTYPE svg PUBLIC "-//W3C//DTD SVG 20010904//EN"
              "http://www.w3.org/TR/2001/REC-SVG-20010904/DTD/svg10.dtd">

<svg xmlns="http://www.w3.org/2000/svg"
     width="11.1111in" height="11.1111in"
     viewBox="0 0 1000 1000">
  <path id="Selection"
        fill="black" stroke="black" stroke-width="1"
        d="M 250.00,401.00
           C 250.00,401.00 269.00,401.00 269.00,401.00
             271.52,400.99 275.50,401.32 277.40,399.40
             280.91,395.85 276.44,391.10 276.44,388.00
             276.44,385.14 282.87,376.58 273.98,375.05
             273.98,375.05 271.00,375.05 271.00,375.05
             271.00,375.05 250.00,375.05 250.00,375.05
             247.46,375.01 243.52,374.68 241.60,376.60
             239.76,378.44 240.09,381.61 239.91,384.00
             239.91,384.00 239.00,400.00 239.00,400.00
             238.98,411.41 234.27,415.97 229.25,426.00
             229.25,426.00 202.31,477.00 202.31,477.00
             202.31,477.00 189.76,501.00 189.76,501.00
             188.42,503.71 186.29,507.64 188.19,510.57
             190.06,513.46 194.98,513.00 198.00,513.00
             198.00,513.00 291.00,513.00 291.00,513.00
             293.44,513.00 297.53,513.23 299.57,511.83
             302.75,509.62 301.46,505.88 300.20,503.00
             300.20,503.00 290.25,484.00 290.25,484.00
             290.25,484.00 260.76,428.00 260.76,428.00
             256.39,419.42 250.10,410.84 250.00,401.00 Z
           M 245.00,420.00
           C 245.00,420.00 264.04,456.00 264.04,456.00
             265.03,457.62 270.78,468.41 264.04,465.83
             260.55,464.55 258.09,459.40 254.00,460.91
             251.50,461.83 248.59,466.14 245.00,466.14
             241.41,466.14 238.50,461.83 236.00,460.91
             231.88,459.39 229.45,464.60 226.02,465.83
             218.60,468.50 223.69,458.12 224.86,456.00
             224.86,456.00 237.69,432.00 237.69,432.00
             240.17,427.41 241.25,423.76 245.00,420.00 Z
           M 513.00,462.00
           C 495.40,452.72 477.70,480.93 477.29,496.00
             476.95,498.12 477.03,500.94 477.29,503.00
             480.45,514.97 492.59,511.35 500.00,506.23
             503.94,503.50 507.54,500.30 511.00,497.00
             511.27,500.35 511.94,507.09 514.51,509.40
             518.92,513.37 530.95,508.51 532.10,503.90
             532.62,501.84 531.14,497.23 530.66,495.00
             529.61,490.13 529.02,485.99 529.00,481.00
             528.94,469.03 529.83,459.65 532.88,448.00
             532.88,448.00 536.00,435.00 536.00,435.00
             532.53,435.00 526.03,434.55 523.10,436.17
             517.08,439.51 513.55,455.42 513.00,462.00 Z
           M 376.00,440.00
           C 376.00,440.00 377.78,446.58 377.78,446.58
             377.77,449.46 369.22,463.47 367.31,467.00
             365.60,470.16 362.86,476.36 360.47,478.69
             357.39,481.69 348.85,481.39 346.66,489.00
             345.57,492.77 347.99,494.04 351.00,495.00
             348.79,497.57 342.72,504.51 342.73,507.85
             342.74,512.61 354.25,511.11 357.00,509.99
             364.58,506.91 365.99,499.18 369.39,497.02
             371.35,495.78 374.72,496.01 377.00,496.00
             384.19,495.98 384.99,496.03 392.00,494.00
             395.50,504.48 399.33,515.19 413.00,510.01
             415.40,509.10 417.84,507.40 420.00,506.00
             420.00,506.00 409.72,480.00 409.72,480.00
             409.72,480.00 403.76,453.00 403.76,453.00
             402.68,448.44 400.87,442.77 396.82,440.01
             393.37,437.66 388.04,437.84 384.00,438.04
             380.47,438.21 379.22,438.66 376.00,440.00 Z
           M 782.00,502.00
           C 779.08,501.05 776.56,500.43 774.56,497.86
             771.50,493.90 772.77,479.24 775.85,475.43
             778.14,472.60 781.44,473.30 783.99,469.78
             788.33,463.77 785.55,460.39 779.00,460.00
             780.36,456.91 784.94,446.03 784.50,443.15
             783.76,438.25 773.93,439.32 769.39,444.21
             765.76,448.12 764.57,454.59 762.19,457.79
             759.65,461.19 755.60,462.18 754.45,467.00
             753.27,471.96 756.98,472.56 756.28,478.01
             755.25,486.05 750.67,495.86 754.01,504.00
             758.73,515.52 777.02,512.01 782.00,502.00 Z
           M 653.00,490.00
           C 645.25,491.25 643.37,496.92 639.13,496.13
             635.98,495.54 635.35,491.61 635.53,489.00
             636.01,482.15 639.16,476.09 642.00,470.00
             643.05,475.41 641.39,476.84 640.00,482.00
             643.29,481.96 645.97,482.12 648.82,480.11
             653.87,476.53 657.70,466.22 651.77,461.74
             646.09,457.44 637.82,461.12 633.04,464.90
             623.51,472.43 611.25,492.81 618.41,504.91
             621.60,510.29 626.25,511.11 632.00,510.98
             644.11,510.73 652.73,502.01 653.00,490.00 Z
           M 678.00,498.00
           C 685.08,495.81 686.01,496.48 692.00,490.91
             705.10,478.72 704.61,462.18 694.00,460.23
             677.44,457.18 664.04,472.62 659.59,487.00
             658.17,492.15 656.90,498.97 659.59,504.11
             665.79,516.45 683.33,510.22 692.00,504.11
             694.38,502.58 699.56,498.86 700.26,496.02
             701.10,492.59 697.55,491.88 695.00,492.45
             687.74,494.06 687.89,500.15 678.00,498.00 Z
           M 720.00,513.00
           C 720.00,513.00 722.00,500.00 722.00,500.00
             716.40,500.02 712.57,499.97 708.34,504.33
             706.16,506.57 705.17,508.88 705.07,512.00
             704.83,519.64 710.74,520.92 717.00,521.00
             728.33,521.14 735.06,518.58 742.90,510.00
             746.66,505.87 749.62,499.71 747.40,494.04
             743.64,484.44 722.08,489.61 726.60,476.00
             727.07,474.57 727.80,473.24 728.65,472.00
             729.91,470.17 731.48,468.61 733.00,467.00
             733.00,467.00 733.00,485.00 733.00,485.00
             736.64,484.99 739.72,485.25 742.91,483.11
             749.04,478.98 751.56,468.84 745.77,463.39
             738.91,456.92 725.97,460.43 719.00,464.96
             710.89,470.24 700.15,485.12 710.11,493.59
             714.75,497.53 722.27,497.75 725.67,501.39
             730.27,506.32 724.69,511.36 720.00,513.00 Z
           M 453.00,491.00
           C 453.01,500.21 453.51,511.96 466.00,510.89
             468.79,510.65 472.25,509.68 473.36,506.79
             474.25,504.48 472.10,496.73 472.01,493.00
             471.78,482.69 477.74,465.90 464.00,467.11
             462.07,467.28 460.72,467.67 459.00,468.57
             457.27,469.48 455.47,470.89 454.00,472.18
             450.65,475.15 449.10,477.09 447.00,481.00
             447.00,481.00 447.92,469.00 447.92,469.00
             447.77,457.80 437.01,458.94 431.90,468.00
             428.10,474.75 421.68,496.44 422.21,504.00
             422.66,510.39 427.42,515.39 433.96,511.98
             436.66,510.57 438.80,507.36 440.66,505.00
             444.54,500.09 448.59,495.45 453.00,491.00 Z
           M 547.00,511.00
           C 536.93,513.94 533.10,518.67 533.00,529.00
             535.67,528.99 538.40,529.11 541.00,528.36
             558.20,523.42 570.46,500.18 577.30,485.00
             579.09,481.04 585.67,467.06 584.17,463.29
             582.99,460.32 578.36,460.89 576.00,461.85
             569.58,464.48 568.01,471.10 566.00,477.00
             563.90,483.16 561.14,490.33 558.00,496.00
             556.01,488.48 555.08,480.71 554.15,473.00
             553.79,469.98 553.55,464.83 551.28,462.60
             549.85,461.20 547.89,461.03 546.00,461.06
             537.34,461.19 535.42,466.57 534.43,474.00
             532.90,485.46 540.37,501.92 547.00,511.00 Z
           M 803.00,511.00
           C 792.93,513.94 789.10,518.67 789.00,529.00
             791.67,528.99 794.40,529.11 797.00,528.36
             814.20,523.42 826.46,500.18 833.30,485.00
             835.09,481.04 841.67,467.06 840.17,463.29
             838.99,460.32 834.36,460.89 832.00,461.85
             825.58,464.48 824.01,471.10 822.00,477.00
             819.90,483.16 817.14,490.33 814.00,496.00
             812.01,488.48 811.08,480.71 810.15,473.00
             809.79,469.98 809.55,464.83 807.28,462.60
             805.85,461.20 803.89,461.03 802.00,461.06
             793.34,461.19 791.42,466.57 790.43,474.00
             788.90,485.46 796.37,501.92 803.00,511.00 Z
           M 385.00,463.00
           C 385.00,463.00 388.00,481.00 388.00,481.00
             388.00,481.00 376.00,481.00 376.00,481.00
             377.05,475.40 380.98,467.03 385.00,463.00 Z
           M 505.00,469.00
           C 507.78,475.69 507.24,479.08 506.00,486.00
             506.00,486.00 511.00,485.00 511.00,485.00
             507.69,491.94 499.15,497.11 497.31,490.85
             495.49,484.67 500.04,474.35 503.00,469.00
             503.00,469.00 505.00,469.00 505.00,469.00 Z
           M 687.00,469.00
           C 686.91,478.55 684.84,487.82 677.00,494.00
             677.21,484.41 680.32,477.22 685.00,469.00
             685.00,469.00 687.00,469.00 687.00,469.00 Z" />
</svg>
