<?xml version="1.0" standalone="no"?>
<!DOCTYPE svg PUBLIC "-//W3C//DTD SVG 20010904//EN"
 "http://www.w3.org/TR/2001/REC-SVG-20010904/DTD/svg10.dtd">
<svg version="1.0" xmlns="http://www.w3.org/2000/svg"
 width="500.000000pt" height="500.000000pt" viewBox="0 0 500.000000 500.000000"
 preserveAspectRatio="xMidYMid meet">
<metadata>
Created by potrace 1.14, written by Peter Selinger 2001-2017
</metadata>
<g transform="translate(0.000000,500.000000) scale(0.100000,-0.100000)"
fill="#000000" stroke="none">
<path d="M0 2500 l0 -2500 2500 0 2500 0 0 2500 0 2500 -2500 0 -2500 0 0
-2500z m2489 1783 c11 -10 116 -187 233 -394 117 -207 220 -386 228 -398 14
-21 18 -16 115 139 101 162 128 190 183 190 52 0 82 -43 649 -955 311 -500
570 -920 576 -932 8 -18 6 -27 -8 -43 -18 -20 -29 -20 -1970 -20 -2140 0
-1982 -5 -1973 58 2 15 135 252 295 527 160 275 340 585 401 690 60 104 122
199 136 209 32 24 85 26 118 4 14 -9 65 -85 113 -168 48 -83 88 -150 90 -148
1 2 149 275 329 608 180 333 339 615 352 628 31 28 102 30 133 5z m391 -2827
l0 -84 66 6 c110 8 164 -37 164 -136 0 -59 -29 -109 -80 -135 -28 -14 -54 -17
-122 -15 -47 2 -89 6 -93 10 -4 3 -2 15 4 26 7 13 11 90 11 196 0 176 0 176
-22 177 -18 0 -15 5 17 20 22 10 43 19 48 19 4 0 7 -38 7 -84z m342 -131 c2
-179 6 -217 18 -225 11 -7 2 -10 -30 -10 l-45 0 3 205 3 205 -23 1 c-19 0 -15
4 17 20 22 10 43 19 47 19 4 0 8 -97 10 -215z m-787 181 c18 -28 9 -58 -23
-75 -27 -14 -66 9 -70 40 -6 55 63 81 93 35z m219 -13 c9 -22 -13 -45 -38 -41
-26 4 -33 38 -11 54 20 15 41 9 49 -13z m-779 -144 c44 -88 83 -162 86 -164 3
-2 37 70 74 160 l69 165 51 0 c39 -1 46 -3 33 -11 -16 -9 -18 -30 -18 -199 0
-169 2 -190 18 -199 13 -8 -1 -10 -53 -10 -38 1 -63 3 -54 6 10 2 20 14 23 26
10 37 7 342 -3 332 -5 -6 -42 -86 -81 -180 -40 -93 -75 -174 -78 -179 -3 -5
-43 65 -88 155 l-83 164 0 -142 c-1 -130 1 -145 19 -163 l20 -20 -46 0 c-41 0
-44 1 -30 16 13 13 16 44 16 183 0 155 -2 170 -21 195 l-20 26 43 0 43 0 80
-161z m435 -84 c0 -104 2 -117 21 -136 25 -25 68 -21 109 10 23 17 25 25 28
113 2 77 0 99 -13 112 -15 15 -13 16 27 16 l44 0 -4 -131 c-4 -118 -3 -131 14
-144 17 -13 15 -14 -23 -15 -39 0 -43 2 -43 25 l0 24 -47 -25 c-35 -18 -60
-24 -93 -22 -64 4 -80 39 -80 169 0 60 -4 99 -12 107 -9 9 -3 12 30 12 l42 0
0 -115z m342 -52 c3 -157 2 -169 -17 -191 -19 -23 -65 -52 -81 -52 -4 0 3 12
17 26 23 25 24 32 27 192 3 150 2 167 -14 179 -16 11 -13 13 23 13 l41 0 4
-167z m884 137 c105 -99 44 -260 -98 -260 -101 0 -153 49 -153 145 0 102 53
148 162 142 50 -2 68 -8 89 -27z m355 20 c17 -10 19 -23 19 -165 0 -147 -1
-155 -22 -175 -63 -59 -158 -79 -206 -43 -31 23 -31 36 0 44 16 4 30 -1 45
-18 26 -27 78 -31 105 -6 11 10 18 30 18 54 l0 37 -60 -5 c-69 -7 -112 8 -139
46 -52 74 -20 191 63 227 37 16 149 18 177 4z m248 -227 c13 -25 -5 -53 -34
-53 -15 0 -26 7 -30 20 -13 41 43 70 64 33z m124 -4 c15 -24 1 -49 -27 -49
-31 0 -48 27 -34 53 11 22 46 19 61 -4z m122 -14 c0 -27 -3 -30 -30 -30 -21 0
-31 5 -33 18 -6 33 6 49 35 45 24 -3 28 -8 28 -33z"/>
<path d="M2018 3473 c-15 -17 -271 -483 -284 -517 -3 -9 33 -83 90 -183 53
-93 96 -176 96 -185 0 -22 -25 -40 -52 -36 -17 2 -42 36 -106 146 l-84 142
-42 -44 c-42 -46 -55 -51 -143 -60 -29 -3 -73 -16 -100 -30 -78 -42 -147 -29
-198 38 -31 40 -62 47 -88 18 -27 -30 -465 -790 -459 -796 9 -10 3692 -7 3692
3 0 4 -150 248 -333 542 -303 487 -335 534 -361 537 -21 3 -37 -5 -65 -31 -57
-54 -82 -67 -129 -67 -56 0 -73 9 -158 90 l-72 68 -70 4 c-62 3 -75 7 -101 32
-17 16 -43 53 -58 82 -15 30 -30 54 -33 54 -6 0 -155 -239 -488 -785 -164
-268 -213 -341 -230 -343 -28 -4 -52 14 -52 39 0 17 183 323 548 917 89 144
162 265 162 270 0 13 -45 92 -52 92 -4 0 -21 -21 -39 -46 -61 -90 -149 -111
-227 -54 -68 49 -78 48 -157 -14 -111 -89 -183 -87 -255 7 -106 137 -119 147
-152 110z"/>
<path d="M2898 1359 c-15 -9 -18 -26 -18 -119 0 -101 2 -110 22 -124 35 -25
94 -20 123 9 51 50 23 204 -42 234 -30 14 -62 14 -85 0z"/>
<path d="M2362 1508 c-7 -7 -12 -20 -12 -29 0 -43 72 -53 78 -11 6 42 -37 69
-66 40z"/>
<path d="M3360 1350 c-15 -15 -20 -33 -20 -75 0 -98 49 -175 112 -175 18 0 38
4 44 8 35 23 45 116 20 177 -33 78 -111 110 -156 65z"/>
<path d="M3716 1347 c-44 -44 -42 -141 4 -200 26 -33 82 -52 110 -37 18 10 20
20 20 125 0 103 -2 115 -19 125 -35 18 -90 12 -115 -13z"/>
</g>
</svg>
