<?xml version="1.0" standalone="no"?>
<!DOCTYPE svg PUBLIC "-//W3C//DTD SVG 20010904//EN"
 "http://www.w3.org/TR/2001/REC-SVG-20010904/DTD/svg10.dtd">
<svg version="1.0" xmlns="http://www.w3.org/2000/svg"
 width="700.000000pt" height="700.000000pt" viewBox="0 0 700.000000 700.000000"
 preserveAspectRatio="xMidYMid meet">
<metadata>
Created by potrace 1.14, written by Peter Selinger 2001-2017
</metadata>
<g transform="translate(0.000000,700.000000) scale(0.100000,-0.100000)"
fill="#000000" stroke="none">
<path d="M3415 6986 c-46 -20 -94 -64 -118 -110 -22 -41 -22 -42 -27 -776 l-5
-735 -1328 -2525 c-902 -1714 -1332 -2541 -1339 -2575 -19 -88 18 -172 101
-230 l43 -30 2735 -3 c1768 -1 2748 1 2772 8 20 5 53 24 74 41 85 70 106 185
53 289 -16 30 -617 1176 -1337 2545 l-1309 2491 0 172 0 172 675 0 c507 0 681
3 702 12 118 52 176 191 124 303 -10 22 -63 99 -118 170 -54 72 -103 136 -107
143 -5 9 27 59 99 154 59 77 115 158 126 181 50 111 -2 245 -116 298 -38 18
-82 19 -855 18 -650 0 -821 -2 -845 -13z m721 -3363 c346 -658 630 -1204 632
-1213 4 -21 -64 -78 -116 -96 -47 -17 -93 -17 -146 -2 -33 10 -79 50 -249 217
l-207 205 -208 -206 c-215 -214 -234 -228 -316 -228 -81 0 -103 16 -318 229
l-208 205 -207 -205 c-185 -183 -213 -207 -256 -219 -53 -14 -122 -8 -165 14
-15 8 -50 38 -78 68 l-51 53 625 1188 c344 653 628 1187 632 1187 4 0 290
-538 636 -1197z"/>
</g>
</svg>
